<svg xmlns="http://www.w3.org/2000/svg" version="1.1" xmlns:xlink="http://www.w3.org/1999/xlink" xmlns:svgjs="http://svgjs.dev/svgjs" width="2000" height="313" viewBox="0 0 2000 313"><g transform="matrix(1,0,0,1,-1.2121212121212466,-0.7427663916503207)"><svg viewBox="0 0 396 62" data-background-color="#ffffff" preserveAspectRatio="xMidYMid meet" height="313" width="2000" xmlns="http://www.w3.org/2000/svg" xmlns:xlink="http://www.w3.org/1999/xlink"><g id="tight-bounds" transform="matrix(1,0,0,1,0.2400000000000091,0.14712944499143532)"><svg viewBox="0 0 395.52 61.705741110017115" height="61.705741110017115" width="395.52"><g><svg viewBox="0 0 456.6356907290094 71.24050291696526" height="61.705741110017115" width="395.52"><g transform="matrix(1,0,0,1,61.115690729009415,6.660226532481698)"><svg viewBox="0 0 395.52 57.92004985200186" height="57.92004985200186" width="395.52"><g id="textblocktransform"><svg viewBox="0 0 395.52 57.92004985200186" height="57.92004985200186" width="395.52" id="textblock"><g><svg viewBox="0 0 395.52 57.92004985200186" height="57.92004985200186" width="395.52"><g transform="matrix(1,0,0,1,0,0)"><svg width="395.52" viewBox="2.5 -35.4 320.92 47" height="57.92004985200186" data-palette-color="#a437db"><path d="M22.15-13.1L17.9-13.1 17.9-18 27.65-18 27.65-0.6Q26.3-0.25 22.18 0.15 18.05 0.55 16.2 0.55L16.2 0.55Q8.4 0.55 5.45-3.75 2.5-8.05 2.5-17.23 2.5-26.4 5.53-30.6 8.55-34.8 16-34.8L16-34.8Q20.4-34.8 25.9-33.8L25.9-33.8 27.65-33.45 27.45-29.05Q21.4-29.85 16.6-29.85 11.8-29.85 10.03-27.15 8.25-24.45 8.25-17.15 8.25-9.85 9.93-7.08 11.6-4.3 16.7-4.3L16.7-4.3Q20.35-4.3 22.15-4.75L22.15-4.75 22.15-13.1ZM52.45-17.3L52.45-17.3 52.45-5.9Q52.5-4.8 53.02-4.28 53.55-3.75 54.65-3.6L54.65-3.6 54.5 0.55Q50.2 0.55 47.85-1.3L47.85-1.3Q43.85 0.55 39.8 0.55L39.8 0.55Q32.35 0.55 32.35-7.4L32.35-7.4Q32.35-11.2 34.37-12.9 36.4-14.6 40.6-14.95L40.6-14.95 47.05-15.5 47.05-17.3Q47.05-19.3 46.17-20.1 45.3-20.9 43.6-20.9L43.6-20.9Q40.4-20.9 35.6-20.5L35.6-20.5 34-20.4 33.8-24.25Q39.25-25.55 43.82-25.55 48.4-25.55 50.42-23.58 52.45-21.6 52.45-17.3ZM47.05-11.65L41.25-11.1Q37.8-10.8 37.8-7.35 37.8-3.9 40.85-3.9L40.85-3.9Q43.35-3.9 46.15-4.7L46.15-4.7 47.05-5 47.05-11.65ZM74.25-35.4L79.7-35.4 79.7 0 74.3 0 74.3-1.3Q70.65 0.55 67.59 0.55L67.59 0.55Q62.7 0.55 60.42-2.4 58.15-5.35 58.15-12.3 58.15-19.25 60.67-22.4 63.2-25.55 68.55-25.55L68.55-25.55Q70.34-25.55 74.25-24.9L74.25-24.9 74.25-35.4ZM73.4-5.2L73.4-5.2 74.25-5.55 74.25-20.35Q71.25-20.85 68.7-20.85L68.7-20.85Q63.65-20.85 63.65-12.45L63.65-12.45Q63.65-7.85 64.82-6.08 66-4.3 68.55-4.3 71.09-4.3 73.4-5.2ZM108.14 3.4L108.14 3.4Q108.14 11.6 96.29 11.6L96.29 11.6Q90.59 11.6 87.84 10.05 85.09 8.5 85.09 4.4L85.09 4.4Q85.09 2.55 85.99 1.23 86.89-0.1 88.89-1.65L88.89-1.65Q87.24-2.75 87.24-5.3L87.24-5.3Q87.24-6.3 88.59-8.55L88.59-8.55 89.04-9.3Q85.44-11.45 85.44-16.8L85.44-16.8Q85.44-21.3 88.14-23.4 90.84-25.5 95.44-25.5L95.44-25.5Q97.64-25.5 99.79-25L99.79-25 100.54-24.85 108.29-25.05 108.29-20.65 104.14-20.9Q105.49-19.15 105.49-16.8L105.49-16.8Q105.49-11.9 103.02-10.03 100.54-8.15 95.29-8.15L95.29-8.15Q93.99-8.15 93.09-8.35L93.09-8.35Q92.39-6.65 92.39-5.73 92.39-4.8 93.32-4.45 94.24-4.1 97.79-4.05L97.79-4.05Q103.74-4 105.94-2.45 108.14-0.9 108.14 3.4ZM90.44 3.9L90.44 3.9Q90.44 5.65 91.84 6.4 93.24 7.15 96.64 7.15L96.64 7.15Q102.69 7.15 102.69 3.7L102.69 3.7Q102.69 1.75 101.62 1.23 100.54 0.7 97.34 0.65L97.34 0.65 92.44 0.35Q91.34 1.25 90.89 2.02 90.44 2.8 90.44 3.9ZM90.84-16.8Q90.84-14.5 91.94-13.43 93.04-12.35 95.49-12.35 97.94-12.35 99.02-13.43 100.09-14.5 100.09-16.8 100.09-19.1 98.99-20.18 97.89-21.25 95.44-21.25L95.44-21.25Q90.84-21.25 90.84-16.8L90.84-16.8ZM130.34-4.5L130.34-4.5 131.74-4.65 131.84-0.6Q126.14 0.55 121.74 0.55L121.74 0.55Q116.19 0.55 113.77-2.5 111.34-5.55 111.34-12.25L111.34-12.25Q111.34-25.55 122.19-25.55L122.19-25.55Q132.69-25.55 132.69-14.1L132.69-14.1 132.34-10.2 116.84-10.2Q116.89-7.1 118.19-5.65 119.49-4.2 123.04-4.2 126.59-4.2 130.34-4.5ZM116.79-14.4L127.34-14.4Q127.34-18.1 126.17-19.58 124.99-21.05 122.19-21.05 119.39-21.05 118.12-19.5 116.84-17.95 116.79-14.4L116.79-14.4ZM151.39-25L151.39-20.35 144.49-20.35 144.49-9.35Q144.49-6.3 144.94-5.3 145.39-4.3 147.24-4.3L147.24-4.3 151.34-4.45 151.59-0.1Q148.24 0.55 146.49 0.55L146.49 0.55Q142.24 0.55 140.66-1.4 139.09-3.35 139.09-8.75L139.09-8.75 139.09-20.35 135.89-20.35 135.89-25 139.09-25 139.09-32.25 144.49-32.25 144.49-25 151.39-25ZM173.29-24.4L173.19-19.85Q167.29-20.65 164.64-20.65 161.99-20.65 160.96-20.03 159.94-19.4 159.94-18.05 159.94-16.7 161.06-16.15 162.19-15.6 166.36-14.88 170.54-14.15 172.29-12.6 174.04-11.05 174.04-7.1 174.04-3.15 171.51-1.3 168.99 0.55 164.14 0.55L164.14 0.55Q161.09 0.55 156.44-0.3L156.44-0.3 154.89-0.55 155.09-5.1Q161.09-4.3 163.74-4.3 166.39-4.3 167.51-4.95 168.64-5.6 168.64-7.1 168.64-8.6 167.56-9.18 166.49-9.75 162.41-10.43 158.34-11.1 156.44-12.55 154.54-14 154.54-17.85 154.54-21.7 157.16-23.6 159.79-25.5 163.89-25.5L163.89-25.5Q167.09-25.5 171.74-24.7L171.74-24.7 173.29-24.4ZM209.13-13.1L204.88-13.1 204.88-18 214.63-18 214.63-0.6Q213.28-0.25 209.16 0.15 205.03 0.55 203.18 0.55L203.18 0.55Q195.38 0.55 192.43-3.75 189.48-8.05 189.48-17.23 189.48-26.4 192.51-30.6 195.53-34.8 202.98-34.8L202.98-34.8Q207.38-34.8 212.88-33.8L212.88-33.8 214.63-33.45 214.43-29.05Q208.38-29.85 203.58-29.85 198.78-29.85 197.01-27.15 195.23-24.45 195.23-17.15 195.23-9.85 196.91-7.08 198.58-4.3 203.68-4.3L203.68-4.3Q207.33-4.3 209.13-4.75L209.13-4.75 209.13-13.1ZM239.43-17.3L239.43-17.3 239.43-5.9Q239.48-4.8 240-4.28 240.53-3.75 241.63-3.6L241.63-3.6 241.48 0.55Q237.18 0.55 234.83-1.3L234.83-1.3Q230.83 0.55 226.78 0.55L226.78 0.55Q219.33 0.55 219.33-7.4L219.33-7.4Q219.33-11.2 221.35-12.9 223.38-14.6 227.58-14.95L227.58-14.95 234.03-15.5 234.03-17.3Q234.03-19.3 233.15-20.1 232.28-20.9 230.58-20.9L230.58-20.9Q227.38-20.9 222.58-20.5L222.58-20.5 220.98-20.4 220.78-24.25Q226.23-25.55 230.8-25.55 235.38-25.55 237.4-23.58 239.43-21.6 239.43-17.3ZM234.03-11.65L228.23-11.1Q224.78-10.8 224.78-7.35 224.78-3.9 227.83-3.9L227.83-3.9Q230.33-3.9 233.13-4.7L233.13-4.7 234.03-5 234.03-11.65ZM252.03 0L246.58 0 246.58-35.4 252.03-35.4 252.03 0ZM260.3-22.3Q262.87-25.55 268.87-25.55 274.87-25.55 277.45-22.3 280.02-19.05 280.02-12.55 280.02-6.05 277.52-2.75 275.02 0.55 268.87 0.55 262.72 0.55 260.22-2.75 257.72-6.05 257.72-12.55 257.72-19.05 260.3-22.3ZM264.37-6.05Q265.52-4.05 268.87-4.05 272.22-4.05 273.37-6.05 274.52-8.05 274.52-12.6 274.52-17.15 273.3-19.05 272.07-20.95 268.87-20.95 265.67-20.95 264.45-19.05 263.22-17.15 263.22-12.6 263.22-8.05 264.37-6.05ZM290.87 0L285.42 0 285.42-25 290.82-25 290.82-22Q295.07-24.75 299.32-25.55L299.32-25.55 299.32-20.1Q295.02-19.25 291.97-17.9L291.97-17.9 290.87-17.45 290.87 0ZM321.07-4.5L321.07-4.5 322.47-4.65 322.57-0.6Q316.87 0.55 312.47 0.55L312.47 0.55Q306.92 0.55 304.49-2.5 302.07-5.55 302.07-12.25L302.07-12.25Q302.07-25.55 312.92-25.55L312.92-25.55Q323.42-25.55 323.42-14.1L323.42-14.1 323.07-10.2 307.57-10.2Q307.62-7.1 308.92-5.65 310.22-4.2 313.77-4.2 317.32-4.2 321.07-4.5ZM307.52-14.4L318.07-14.4Q318.07-18.1 316.89-19.58 315.72-21.05 312.92-21.05 310.12-21.05 308.84-19.5 307.57-17.95 307.52-14.4L307.52-14.4Z" opacity="1" transform="matrix(1,0,0,1,0,0)" fill="#a437db" class="wordmark-text-0" data-fill-palette-color="primary" id="text-0"></path></svg></g></svg></g></svg></g></svg></g><g><svg viewBox="0 0 47.442157040148224 71.24050291696526" height="71.24050291696526" width="47.442157040148224"><g><svg xmlns="http://www.w3.org/2000/svg" xmlns:xlink="http://www.w3.org/1999/xlink" version="1.1" x="0" y="0" viewBox="10.6 3 30.699999999999996 46.099999999999994" style="enable-background:new 0 0 52 52;" xml:space="preserve" height="71.24050291696526" width="47.442157040148224" class="icon-icon-0" data-fill-palette-color="accent" id="icon-0"><g fill="#a437db" data-fill-palette-color="accent"><path d="M38.5 3H13.5c-1.6 0-2.9 1.3-2.9 2.9v40.3c0 1.6 1.3 2.9 2.9 2.9h24.9c1.6 0 2.9-1.3 2.9-2.9V5.9C41.3 4.3 40 3 38.5 3zM22.2 44.2c0-0.5 0.4-1 1-1h5.8c0.5 0 1 0.4 1 1 0 0.5-0.4 1-1 1h-5.8C22.6 45.2 22.2 44.7 22.2 44.2zM36.5 24.4C36.3 24.8 36 25 35.6 25h-1.9v10.5c0 0.5-0.4 1-1 1H19.3c-0.5 0-1-0.4-1-1V25h-1.9c-0.4 0-0.8-0.3-0.9-0.6-0.1-0.4 0-0.8 0.3-1.1l9.6-7.7c0.4-0.3 0.9-0.3 1.2 0l9.6 7.7C36.5 23.6 36.6 24 36.5 24.4zM23.1 7.8c0-0.5 0.4-1 1-1h3.8c0.5 0 1 0.4 1 1s-0.4 1-1 1h-3.8C23.5 8.8 23.1 8.3 23.1 7.8z" fill="#a437db" data-fill-palette-color="accent"></path><path d="M19.1 23.1h0.1c0.5 0 1 0.4 1 1v10.5h1.9v-6.7c0-0.5 0.4-1 1-1h5.8c0.5 0 1 0.4 1 1v6.7h1.9V24.1c0-0.5 0.4-1 1-1h0.1L26 17.6 19.1 23.1z" fill="#a437db" data-fill-palette-color="accent"></path><rect x="24.1" y="28.9" width="3.8" height="5.8" fill="#a437db" data-fill-palette-color="accent"></rect></g></svg></g></svg></g></svg></g><defs></defs></svg><rect width="395.52" height="61.705741110017115" fill="none" stroke="none" visibility="hidden"></rect></g></svg></g></svg>